<svg version="1.1" xmlns="http://www.w3.org/2000/svg" xmlns:xlink="http://www.w3.org/1999/xlink" viewBox="0 0 99.6094 99.6582" id="img">
    <g>
        <path d="M49.8047 99.6094C77.0508 99.6094 99.6094 77.002 99.6094 49.8047C99.6094 22.5586 77.002 0 49.7559 0C22.5586 0 0 22.5586 0 49.8047C0 77.002 22.6074 99.6094 49.8047 99.6094Z"/>
        <path fill="#FFFFFF" d="M44.3359 73.6816C42.6758 73.6816 41.3086 72.998 40.0391 71.2891L27.7832 56.25C27.0508 55.2734 26.6113 54.1992 26.6113 53.0762C26.6113 50.8789 28.3203 49.0723 30.5176 49.0723C31.9336 49.0723 33.0078 49.5117 34.2285 51.123L44.1406 63.916L64.9902 30.4199C65.918 28.9551 67.1875 28.1738 68.457 28.1738C70.6055 28.1738 72.6074 29.6387 72.6074 31.9336C72.6074 33.0078 71.9727 34.1309 71.3867 35.1562L48.4375 71.2891C47.4121 72.9004 45.9961 73.6816 44.3359 73.6816Z"/>
    </g>
</svg>