<?xml version="1.0" standalone="no"?>
<!DOCTYPE svg PUBLIC "-//W3C//DTD SVG 20010904//EN"
 "http://www.w3.org/TR/2001/REC-SVG-20010904/DTD/svg10.dtd">
<svg version="1.0" xmlns="http://www.w3.org/2000/svg"
 width="196.000000pt" height="257.000000pt" viewBox="0 0 196.000000 257.000000"
 preserveAspectRatio="xMidYMid meet">
<metadata>
Created by potrace 1.10, written by Peter Selinger 2001-2011
</metadata>
<g transform="translate(0.000000,257.000000) scale(0.100000,-0.100000)"
fill="#000000" stroke="none">
<path d="M1002 2518 c-6 -24 -83 -369 -172 -768 -89 -399 -163 -727 -165 -729
-2 -2 -30 13 -62 32 -32 20 -94 48 -138 62 -67 23 -92 26 -165 23 -99 -4 -140
-21 -199 -81 -65 -65 -85 -116 -89 -230 -5 -121 10 -167 76 -234 125 -125 321
-148 500 -58 37 19 89 53 115 77 l48 43 35 165 c77 362 236 1085 239 1089 2 2
21 -10 42 -26 21 -16 165 -119 321 -228 215 -151 282 -203 282 -219 0 -12 -44
-217 -97 -457 l-97 -436 -91 48 c-194 104 -365 101 -477 -8 -80 -78 -120 -243
-84 -351 24 -72 92 -144 174 -184 59 -29 78 -33 164 -36 140 -5 242 32 361
133 l36 30 195 847 c108 465 196 855 196 866 0 23 -56 65 -485 372 -302 215
-427 300 -442 300 -6 0 -15 -19 -21 -42z m111 -60 c73 -49 620 -438 725 -515
39 -30 72 -57 72 -61 0 -8 -110 -491 -154 -677 -14 -55 -71 -302 -128 -550
l-103 -449 -39 -37 c-49 -48 -131 -91 -225 -119 -65 -20 -79 -21 -125 -11
-116 26 -222 96 -262 173 -59 114 -2 316 106 377 102 57 215 48 382 -31 104
-49 109 -51 128 -33 26 24 29 35 109 390 115 512 115 512 101 546 -9 22 -67
69 -214 173 -482 342 -445 320 -481 286 -13 -12 -28 -41 -33 -64 -26 -115
-222 -1012 -238 -1086 -15 -76 -21 -89 -59 -126 -118 -115 -319 -155 -458 -91
-84 38 -131 87 -167 172 -30 74 -30 75 -15 127 38 130 106 213 193 238 94 26
234 -1 355 -70 64 -36 77 -37 105 -7 25 26 17 -4 202 829 137 615 148 658 157
658 2 0 32 -19 66 -42z"/>
<path d="M1061 2214 c-12 -15 -21 -29 -21 -33 -1 -3 -5 -26 -9 -50 -6 -29 -5
-53 2 -69 7 -14 109 -94 247 -192 427 -304 432 -307 465 -257 25 39 35 117 19
148 -16 32 -636 479 -664 479 -10 0 -28 -12 -39 -26z m304 -198 c138 -98 278
-200 313 -225 34 -24 62 -51 62 -57 0 -27 -22 -114 -29 -114 -3 0 -24 12 -46
27 -62 41 -589 415 -599 423 -7 7 4 78 20 128 5 17 -15 30 279 -182z"/>
</g>
</svg>
